<svg width="103" height="64" viewBox="0 0 103 64" fill="none" xmlns="http://www.w3.org/2000/svg">
<path d="M42.1144 41.6637C41.7352 40.5387 41.2043 39.54 40.509 38.6425C39.8138 37.745 38.9542 37.0372 37.8924 36.5189C36.8432 36.0006 35.5791 35.7478 34.0875 35.7478C32.3936 35.7478 30.902 36.1017 29.6127 36.8096C28.3233 37.5175 27.2489 38.6678 26.4019 40.2479C25.555 41.8407 24.9482 43.9517 24.569 46.6062H23.8485V46.5304L24.3162 36.4178H18.2107V47.2762C18.1727 49.1344 17.9958 50.7904 17.6671 52.244C17.3385 53.6977 16.8708 54.9239 16.2767 55.9478C15.6699 56.9591 14.962 57.7428 14.1277 58.2737C13.3061 58.8046 12.3327 59.0701 11.233 59.0701C9.99419 59.0701 9.02085 58.7793 8.31297 58.1852C7.60509 57.6037 7.08676 56.8326 6.7581 55.8846C6.42944 54.9365 6.22722 53.9 6.16402 52.775C6.10082 51.6499 6.06287 50.5755 6.06287 49.5389V36.4051H0.425049V50.4743C0.425049 52.0291 0.513575 53.4955 0.703186 54.8733C0.892798 56.2512 1.20881 57.5026 1.63859 58.6276C2.06838 59.7527 2.6246 60.7007 3.31984 61.4971C4.01508 62.2935 4.86198 62.9002 5.88588 63.33C6.89715 63.7598 8.09805 63.9747 9.4759 63.9747C11.1698 63.9747 12.6361 63.6208 13.8749 62.9129C15.1137 62.205 16.1376 61.08 16.9466 59.5504C17.7556 58.0209 18.3497 56.011 18.729 53.5208H19.3484L18.9817 63.2921H24.9735V53.0531C25.0115 50.4996 25.3148 48.3001 25.8836 46.4546C26.4525 44.609 27.2741 43.1932 28.3359 42.182C29.4104 41.1833 30.7124 40.6777 32.2672 40.6777C33.5439 40.6777 34.53 40.9937 35.2378 41.6131C35.9457 42.2325 36.4513 43.0036 36.7673 43.939C37.0834 44.8745 37.273 45.8352 37.3615 46.8338C37.45 47.8324 37.4879 48.7425 37.4879 49.5768V63.2795H43.1257V48.8437C43.1257 47.6428 43.0499 46.4166 42.8982 45.1652C42.7465 43.9264 42.481 42.7382 42.1018 41.6258L42.1144 41.6637Z" fill="#F48F56"/>
<path d="M51.8856 26.7351C50.71 26.7351 49.8125 26.9879 49.1931 27.4809C48.5737 27.9865 48.2577 28.7197 48.2577 29.6804C48.2577 30.6411 48.5737 31.3364 49.1931 31.8546C49.8125 32.3729 50.71 32.6257 51.8856 32.6257C53.0612 32.6257 53.9587 32.3729 54.5781 31.8546C55.1975 31.3364 55.5135 30.6158 55.5135 29.6804C55.5135 28.745 55.1975 27.9865 54.5781 27.4809C53.9587 26.9753 53.0612 26.7351 51.8856 26.7351Z" fill="#F48F56"/>
<path d="M54.6796 36.4053H49.0923V63.3049H54.6796V36.4053Z" fill="#F48F56"/>
<path d="M71.2762 58.7037C70.2776 58.7037 69.4307 58.4256 68.7354 57.8821C68.0402 57.3259 67.6989 56.3272 67.6989 54.8862V41.133H74.8409V36.4306H67.6989V30.4768H64.2858L63.9193 33.5232C63.8182 34.5977 63.5022 35.3814 62.9839 35.8997C62.4656 36.418 61.6187 36.6961 60.4431 36.7214H58.5848L58.5343 41.0192H62.2127V55.139C62.2127 56.4789 62.3645 57.6924 62.6552 58.7543C62.946 59.8287 63.401 60.7389 64.0204 61.4973C64.6398 62.2558 65.4488 62.8372 66.4475 63.2544C67.4461 63.6715 68.6596 63.8738 70.0627 63.8738C70.7832 63.8738 71.5417 63.8106 72.338 63.6715C73.1344 63.5325 73.994 63.305 74.9294 63.0016V57.6166C74.3732 58.0337 73.7791 58.3118 73.1218 58.4762C72.4644 58.6279 71.8451 58.7037 71.2636 58.7037H71.2762Z" fill="#F48F56"/>
<path d="M97.5059 54.1022C97.4427 54.7975 97.2656 55.4548 96.9875 56.0995C96.7094 56.7442 96.3176 57.3256 95.8246 57.8566C95.319 58.3875 94.6869 58.8173 93.9158 59.1206C93.1447 59.4367 92.184 59.5883 91.0464 59.5883C88.5308 59.5883 86.5968 58.792 85.2569 57.1866C83.9928 55.6823 83.3482 53.4955 83.2723 50.6766L102.069 50.487C102.246 48.1484 102.107 46.0627 101.652 44.2298C101.21 42.3969 100.476 40.8547 99.4525 39.6032C98.4286 38.3392 97.1772 37.3911 95.6729 36.7338C94.1687 36.0765 92.4622 35.7478 90.5281 35.7478C88.4297 35.7478 86.5842 36.1144 84.9914 36.8602C83.4113 37.606 82.0714 38.6425 81.0096 39.9698C79.9351 41.2971 79.1261 42.8393 78.5825 44.5964C78.0264 46.3534 77.7609 48.2495 77.7609 50.2847C77.7609 52.3199 78.039 54.2286 78.6205 55.8972C79.1893 57.5658 80.0236 59.0069 81.1234 60.2204C82.2231 61.4339 83.601 62.3567 85.2316 63.014C86.8749 63.6713 88.7963 64 90.9958 64C92.7908 64 94.3709 63.7724 95.7488 63.33C97.1266 62.8876 98.3022 62.2429 99.2629 61.4213C100.224 60.5996 100.982 59.6263 101.513 58.5265C102.044 57.4268 102.398 56.2132 102.575 54.9112L97.5059 54.1402V54.1022ZM86.5589 41.5752C87.646 40.7788 88.9606 40.387 90.5155 40.387C91.9312 40.387 93.1321 40.7156 94.1055 41.373C95.0915 42.0303 95.8246 43.0036 96.305 44.293C96.5957 45.0767 96.76 45.9742 96.8232 46.9728L83.4745 47.1372C83.6136 46.3534 83.8158 45.6076 84.0813 44.9377C84.6501 43.484 85.4718 42.3716 86.5589 41.5752Z" fill="#F48F56"/>
<path fill-rule="evenodd" clip-rule="evenodd" d="M20.1194 11.8571V7.93848L9.28622 11.9582H9.26099V15.978H9.28622L20.1194 20.0104V16.0791L14.5574 13.9555L20.1194 11.8445V11.8571Z" fill="#F48F56"/>
<path fill-rule="evenodd" clip-rule="evenodd" d="M82.8815 20.0102V16.0916L88.4307 13.9806L82.8815 11.8696V7.95092L93.702 11.9833H93.7272V16.0157H93.702L82.8815 20.0229V20.0102ZM78.2423 2.40161L71.8713 22.8291H75.6509L82.0219 2.40161H78.2423Z" fill="#F48F56"/>
<path fill-rule="evenodd" clip-rule="evenodd" d="M38.0825 7.3947C39.1569 8.57029 39.7258 10.1378 39.6626 11.7305V20.4274H35.883V12.5269C35.9335 11.642 35.6427 10.7824 35.0992 10.0872C34.5683 9.48043 33.7972 9.13913 33.0008 9.17705C30.637 9.17705 29.4488 10.8204 29.4488 14.107V20.4274H25.6692V6.14326H29.4488V7.43262C30.6497 6.26967 32.2677 5.65027 33.9489 5.71347C35.5037 5.65027 37.0206 6.25703 38.0951 7.38206L38.0825 7.3947Z" fill="#F48F56"/>
<path fill-rule="evenodd" clip-rule="evenodd" d="M43.6442 0V20.4275H47.4238V0H43.6442Z" fill="#F48F56"/>
<path fill-rule="evenodd" clip-rule="evenodd" d="M67.5608 20.4275H64.4006L61.3162 12.0088L58.1939 20.4275H55.0464L49.7499 6.11816H53.7823L56.7529 14.676L59.812 6.11816H62.7572L65.8164 14.7013L68.7869 6.11816H72.8193L67.5228 20.4275H67.5608Z" fill="#F48F56"/>
</svg>
